<?xml version="1.0" encoding="iso-8859-1"?>
<!-- Generator: Adobe Illustrator 19.0.0, SVG Export Plug-In . SVG Version: 6.00 Build 0)  -->
<svg version="1.1" id="Layer_1" xmlns="http://www.w3.org/2000/svg" xmlns:xlink="http://www.w3.org/1999/xlink" x="0px" y="0px"
	 viewBox="0 0 512 512" style="enable-background:new 0 0 512 512;" xml:space="preserve">
<path style="fill:#C9E3F7;" d="M432.356,512H79.644V79.644h352.711V512z"/>
<path style="fill:#AED5F3;" d="M432.356,512H256V79.644h176.356V512z"/>
<polygon style="fill:#FF9811;" points="432.356,449.422 394.114,473.758 369.778,512 432.356,512 "/>
<path style="fill:#FFFFFF;" d="M369.778,512v-62.578h62.578L369.778,512z"/>
<path style="fill:#FFC170;" d="M364.089,113.778H147.911V45.511h43.702C201.023,18.737,226.471,0,256,0s54.977,18.737,64.387,45.511
	h43.702V113.778z"/>
<g>
	<rect x="182.044" y="261.689" style="fill:#FFFFFF;" width="147.911" height="34.133"/>
	<rect x="182.044" y="329.956" style="fill:#FFFFFF;" width="113.778" height="34.133"/>
	<rect x="182.044" y="193.422" style="fill:#FFFFFF;" width="113.778" height="34.133"/>
	<rect x="182.044" y="398.222" style="fill:#FFFFFF;" width="73.956" height="34.133"/>
</g>
<path style="fill:#FF9811;" d="M320.387,45.511C310.977,18.737,285.529,0,256,0v113.778h108.089V45.511H320.387z"/>
<g>
</g>
<g>
</g>
<g>
</g>
<g>
</g>
<g>
</g>
<g>
</g>
<g>
</g>
<g>
</g>
<g>
</g>
<g>
</g>
<g>
</g>
<g>
</g>
<g>
</g>
<g>
</g>
<g>
</g>
</svg>
