<?xml version="1.0" encoding="iso-8859-1"?>
<!-- Generator: Adobe Illustrator 19.0.0, SVG Export Plug-In . SVG Version: 6.00 Build 0)  -->
<svg version="1.1" id="Layer_1" xmlns="http://www.w3.org/2000/svg" xmlns:xlink="http://www.w3.org/1999/xlink" x="0px" y="0px"
	 viewBox="0 0 512 512" style="enable-background:new 0 0 512 512;" xml:space="preserve">
<circle style="fill:#E16B5A;" cx="256" cy="256" r="256"/>
<path style="fill:#D16354;" d="M483.972,372.42L400,165.888c0-4.404-3.6-7.556-8-7.556h-28l-28.86-72.06
	c-1.488-7.028-8.024-11.94-15.14-11.94c-2.556,0-5.244,0-8,0c-18.832,0-41.02,0-48,0c-8,0-16,8-16,16v2.048v2.048V140.7
	c-10.188,11.336-20.94,29.008-71,37.46c-27.888,4.712-97,3.832-97,43.832c0,0.656,0,1.364,0,2.048c0,0.68,0,1.344,0,2.048
	c0,41.848,0,128.296,0,139.904c0,0.808,0,1.528,0,2.048c0,0.808,0,1.532,0,2.048c0,3.78,1.56,7.584,4.064,11.024l36.88,92.336
	c39.208,24.404,85.472,38.544,135.06,38.544C355.444,512,441.58,455.256,483.972,372.42z"/>
<path style="fill:#242424;" d="M400,182.332c0,4.4-3.6,8-8,8h-32c-4.4,0-8-3.6-8-8v-16c0-4.4,3.6-8,8-8h32c4.4,0,8,3.6,8,8V182.332z
	"/>
<path style="fill:#0D0D0D;" d="M352,166.332c0-4.4,3.6-8,8-8h32c4.4,0,8,3.6,8,8H352z"/>
<path style="fill:#263740;" d="M320,74.332c-20,0-48,0-56,0s-16,8-16,16v56h16v-24c0-8,8-16,16-16s10,0,24,0c8,0,16,8,16,16v24h16
	v-56C336,82.332,328,74.332,320,74.332z"/>
<g>
	<path style="fill:#1E2C33;" d="M320,74.332c-2.556,0-5.244,0-8,0c8,0,16,8,16,16v56h8v-56C336,82.332,328,74.332,320,74.332z"/>
	<path style="fill:#1E2C33;" d="M256,122.332v24h8v-24c0-8,8-16,16-16c-2.48,0-4.752,0-8,0C264,106.332,256,114.332,256,122.332z"/>
</g>
<path style="fill:#F5F5F5;" d="M320,94.332c0,2.2-1.8,4-4,4h-48c-2.2,0-4-1.8-4-4v-4c0-2.2,1.8-4,4-4h48c2.2,0,4,1.8,4,4V94.332z"/>
<path style="fill:#263740;" d="M177,178.164c-27.888,4.712-97,3.832-97,43.832s0,132,0,144s14,24.336,26,24.336s36,0,44,0s12-4,20-4
	s192,0,208,0S416,378,416,338s0-96,0-104s1-47.832-35-55.832s-43-47.836-63-47.836s-40,0-48,0C238,130.332,254,165.164,177,178.164z
	"/>
<circle style="fill:#242424;" cx="192" cy="218.32" r="8"/>
<g>
	<path style="fill:#1E2C33;" d="M164,222.332c0,0,0,131.668,0,143.668s-14,24.332-26,24.332c4.512,0,8.712,0,12,0
		c12,0,26-12.332,26-24.332s0-143.668,0-143.668H164z"/>
	<path style="fill:#1E2C33;" d="M164,354.332c0,0,0-131.668,0-143.668s-14-24.332-26-24.332c4.512,0,8.712,0,12,0
		c12,0,26,12.332,26,24.332s0,143.668,0,143.668H164z"/>
	<path style="fill:#1E2C33;" d="M381,178.164c-36-8-43-47.832-63-47.832c-5.416,0-10.824,0-16,0c20,0,27,39.832,63,47.832
		S400,226,400,234s0,64,0,104s-22,48.332-38,48.332c8.064,0,13.728,0,16,0c16,0,38-8.332,38-48.332s0-96,0-104
		S417,186.164,381,178.164z"/>
</g>
<circle style="fill:#242424;" cx="288" cy="286.32" r="104"/>
<circle style="fill:#F5F5F5;" cx="288" cy="286.32" r="96"/>
<circle style="fill:#B3B3B3;" cx="288" cy="286.32" r="88"/>
<circle style="fill:#CCCCCC;" cx="288" cy="286.32" r="84"/>
<circle style="fill:#E6E6E6;" cx="288" cy="286.32" r="80"/>
<circle style="fill:#F5F5F5;" cx="288" cy="286.32" r="76"/>
<circle style="fill:#26484D;" cx="288" cy="286.32" r="72"/>
<circle style="fill:#407980;" cx="288" cy="286.32" r="68"/>
<circle style="fill:#263740;" cx="288" cy="286.32" r="48"/>
<circle style="fill:#4D9199;" cx="252" cy="250.32" r="16"/>
<path style="fill:#354D59;" d="M245.168,264.752c2.08,0.984,4.38,1.584,6.832,1.584c8.836,0,16-7.164,16-16
	c0-2.452-0.592-4.752-1.584-6.832C257.252,248.128,249.796,255.584,245.168,264.752z"/>
<ellipse style="fill:#242424;" cx="124" cy="206.332" rx="16" ry="8"/>
<path style="fill:#406A80;" d="M136,202.332c0,4.416-5.372,8-12,8s-12-3.584-12-8v-4h24V202.332z"/>
<path style="fill:#4D7F99;" d="M136,198.332c0,4.416-5.372,4-12,4s-12,0.416-12-4s5.372-8,12-8
	C130.628,190.332,136,193.916,136,198.332z"/>
<circle style="fill:#354D59;" cx="256" cy="282.32" r="8"/>
<circle style="fill:#4D9199;" cx="312" cy="326.32" r="8"/>
<path style="fill:#354D59;" d="M312,318.332c-4.416,0-8,3.584-8,8c0,1.748,0.572,3.34,1.516,4.656
	c5.008-1.968,9.608-4.74,13.632-8.176C317.844,320.164,315.148,318.332,312,318.332z"/>
<circle style="fill:#4D9199;" cx="232" cy="266.32" r="4"/>
<circle style="fill:#354D59;" cx="316" cy="306.32" r="4"/>
<polygon style="fill:#242424;" points="283.008,298.332 276,291.324 276,281.34 283.008,274.332 292.992,274.332 300,281.34 
	300,291.324 292.992,298.332 "/>
<g>
</g>
<g>
</g>
<g>
</g>
<g>
</g>
<g>
</g>
<g>
</g>
<g>
</g>
<g>
</g>
<g>
</g>
<g>
</g>
<g>
</g>
<g>
</g>
<g>
</g>
<g>
</g>
<g>
</g>
</svg>
